<?xml version="1.0" encoding="UTF-8"?>
<svg id="Layer_2" data-name="Layer 2" xmlns="http://www.w3.org/2000/svg" viewBox="0 0 360 360">
  <defs>
    <style>
      .cls-1 {
        fill: #66aa9d;
      }

      .cls-2 {
        fill: #fff;
      }
    </style>
  </defs>
  <g id="Layer_1-2" data-name="Layer 1">
    <circle class="cls-1" cx="180" cy="180" r="180"/>
    <g id="q3JM3S">
      <path class="cls-2" d="M58.50251,177.5737c4.20642,1.45927,8.28535,3.57285,12.81291,3.96112,12.65584,1.08533,23.36077-5.28899,35.77536,1.38825,1.17867.63395,2.21045,1.55454,3.36325,2.22558.37656-3.55677,2.04618-7.28288,4.03963-10.21597,6.22179-9.15448,18.02435-12.68297,23.08817-23.09574.4821-.99135,2.58506-7.81682,3.00359-7.81345,7.04236,8.81733,8.08921,22.5896,4.06387,32.92151-3.7305,9.57514-16.13267,21.18038-16.17914,31.11706-.03548,7.58522,3.92202,23.02113,7.18064,30.00931,15.25686,32.71871,61.86284,40.83028,86.1224,13.83265,15.37991-17.11577,15.46051-42.06487,3.21177-60.95185-12.43792-19.17867-40.21639-34.36359-44.80051-57.30922-.97657-4.88817-.82318-10.02145-2.10323-14.85492-6.0006-4.85315-11.64276-7.14419-16.0347-13.91268-23.03984-35.50704,19.90701-76.78741,53.52116-53.52116,24.31503,16.82981,22.5039,52.89435-3.68019,66.55349,1.33318,11.97753,7.52258,20.91253,16.385,28.62442,7.67746,6.68075,15.38155,11.7177,22.36564,19.48852,33.59113,37.37499,26.46142,94.51712-13.41526,124.06422-42.17833,31.25252-112.90506,17.30176-125.20988-38.11759-2.82098-12.70533-2.09111-25.78149-1.00069-38.65921-7.25498-7.24346-18.13759-6.2692-27.33102-9.14036-12.46389-3.89254-22.31067-13.71747-25.17876-26.594ZM192.64216,65.09818c-4.49372.51408-9.7671,3.37067-12.73258,6.75136-14.36392,16.37509,8.55364,39.92419,26.33574,25.61412,14.80573-11.91485,4.46815-34.43282-13.60316-32.36548Z"/>
    </g>
  </g>
</svg>