<?xml version="1.0" encoding="UTF-8"?>
<svg id="Layer_2" data-name="Layer 2" xmlns="http://www.w3.org/2000/svg" viewBox="0 0 325.5625 302.2016">
  <defs>
    <style>
      .cls-1 {
        fill: #fff;
      }
    </style>
  </defs>
  <g id="Layer_1-2" data-name="Layer 1">
    <g>
      <g>
        <path class="cls-1" d="M54.56152,132.70699c-2.90332,1.87646-6.28809,2.33447-10.15137,1.375l-20.79492-5.16504c-3.86328-.95947-6.62793-2.94482-8.2959-5.95654-1.66602-3.01123-1.99414-6.55518-.98145-10.63379,1.0127-4.07715,2.98438-7.06152,5.91504-8.95459,2.93066-1.89209,6.32812-2.35889,10.19141-1.39941l2.38184.5918c.21484.05322.37891.17432.49121.36133.11328.18848.14258.38867.08984.60303l-2.27148,9.14258c-.05273.21533-.17285.37891-.36133.49121-.18652.11377-.3877.14258-.60254.08936l-2.51074-.62354c-1.03027-.25586-1.93164-.20654-2.70312.14893-.77148.35498-1.26465.9624-1.47754,1.82031-.20312.81592-.0459,1.56055.46973,2.23584.5166.6748,1.28906,1.14014,2.31934,1.396l20.86035,5.18115c1.0293.25586,1.93066.20605,2.70215-.14893.77246-.35498,1.25879-.94043,1.46191-1.75586.21289-.8584.06152-1.62549-.4541-2.30029s-1.28906-1.14062-2.31934-1.39648l-4.12012-1.02295c-.21484-.05322-.34863.02734-.40234.2417l-.41504,1.67383c-.05371.21533-.17383.37891-.36133.49121-.1875.11377-.38867.14307-.60352.08984l-6.82422-1.69531c-.21484-.05322-.37793-.17285-.49121-.36133-.11328-.18701-.14355-.3877-.08984-.60303l2.95801-11.91064c.05371-.21436.17383-.37793.36133-.4917.18848-.1123.38867-.14258.60352-.08936l11.97461,2.97461c3.86328.95947,6.63672,2.9585,8.32031,5.99658,1.68262,3.03906,2.01855,6.59668,1.00586,10.67383-1.01367,4.07812-2.9707,7.05469-5.875,8.93066Z"/>
        <path class="cls-1" d="M76.43164,86.79293l-17.05762-6.19971c-.1709-.0625-.30664-.02148-.40625.12402l-.56152.82129c-.12598.18311-.0957.33643.08594.46094l14.34766,9.81104c.18262.125.29395.29541.33398.50977.04102.21631-.00195.41455-.12695.59668l-5.31738,7.77588c-.125.18311-.29395.29492-.50977.33447-.21484.04102-.41309-.00146-.59668-.12646l-37.01758-25.31396c-.18164-.12451-.29297-.29395-.33398-.50977-.04004-.21484.00195-.41357.12695-.59668l8.05078-11.77344c1.44727-2.1167,3.23535-3.65381,5.3623-4.61035,2.12793-.95605,4.40039-1.26318,6.81934-.92236,2.41895.3418,4.77832,1.29834,7.07812,2.87109,2.04492,1.39844,3.62305,3.02734,4.73535,4.88574,1.11328,1.85986,1.7002,3.80225,1.7627,5.82617-.01367.09863-.00586.18457.02441.25781.0293.07422.09375.11816.19141.13135l19.15527,6.1875.25684.09473c.36523.25.41016.57568.13574.97705l-5.46777,7.99463c-.27441.40234-.63086.53271-1.07129.39258ZM43.21484,71.55221l7.77539,5.31738c.18359.125.33594.09619.46094-.08691l1.04883-1.5332c.67383-.98535.8457-2.01953.51465-3.10352-.33008-1.08252-1.13379-2.06152-2.41211-2.93555-1.35059-.92334-2.59082-1.34229-3.7207-1.2583-1.12988.08545-2.03125.62012-2.70508,1.60547l-1.04883,1.53369c-.125.18311-.0957.33643.08691.46094Z"/>
        <path class="cls-1" d="M88.6084,26.65475c-.03418.21729-.1416.38965-.32031.51904l-10.7998,7.8208c-.17969.13037-.20312.28467-.07422.46338l4.90332,6.77002c.12988.17969.2832.2041.46289.07373l5.91016-4.27979c.17871-.12988.37598-.17676.59277-.14307.2168.03564.38965.14209.51855.3208l4.63086,6.39355c.12988.17969.17676.37744.14258.59326-.03516.2168-.1416.38916-.32031.51855l-5.91016,4.28027c-.17969.12988-.2041.28418-.07422.46289l4.94141,6.82373c.12988.17969.2832.2041.46289.07422l10.7998-7.8208c.17871-.12988.37598-.17676.59277-.14307.2168.03564.38965.14209.51855.3208l4.5918,6.33984c.12988.17969.17676.37744.14258.59326-.03418.2168-.1416.38916-.32031.51855l-19.34277,14.00781c-.17969.12988-.37695.17773-.59277.14258-.2168-.03418-.38867-.14111-.51855-.3208l-26.30371-36.3208c-.12891-.17871-.17676-.37598-.14258-.59277.03418-.21582.14062-.38867.32031-.51904l19.34277-14.00732c.17871-.12988.37695-.17676.59277-.14307.2168.03564.38965.14209.51855.3208l4.5918,6.33984c.12988.17969.17773.37744.14258.59277Z"/>
        <path class="cls-1" d="M127.24414,49.73434c-.19238-.10596-.31738-.26562-.37793-.479l-4.45801-15.69824-.17285-.36475-16.54688-24.26514c-.06641-.07275-.11816-.17334-.1543-.30078-.1084-.3833.0498-.63477.47559-.75586l9.57227-2.71875c.4248-.12061.76855.03516,1.02832.4668l7.17871,13.13281c.08984.15869.17773.2251.26367.20117.08496-.02441.12402-.12695.11914-.31006l-.79688-14.94531c-.00488-.50391.2041-.81641.62988-.9375L133.57715.04098c.25586-.07227.45703-.04883.60645.06934.14844.11963.22266.33984.22168.66113l-1.44922,29.37598.04492.40088,4.45898,15.69824c.06055.21338.03711.41553-.06934.60596-.10742.19238-.2666.31738-.47949.37744l-9.06152,2.57373c-.21387.06055-.41504.03809-.60547-.06934Z"/>
        <path class="cls-1" d="M176.90625,44.95797c-.10938-.18945-.13379-.39062-.07617-.60498L188.59473,1.07858c.05762-.21289.18164-.37402.37207-.48291.18945-.10889.39062-.13428.60547-.07617l9.08984,2.47119c.21289.05811.37402.18213.4834.37207.1084.19043.13379.39209.07617.60498l-9.41504,34.63232c-.05859.21387.01855.34863.23242.40723l13.05957,3.55029c.21289.05762.37305.18213.4834.37158.10742.19092.13379.39209.07617.60498l-2.05371,7.5542c-.05859.21387-.18262.37451-.37207.48291-.19141.10938-.39258.13428-.60547.07617l-23.2373-6.31738c-.21387-.05811-.375-.18115-.4834-.37207Z"/>
        <path class="cls-1" d="M225.97266,66.37447l2.66992-5.18848c.12891-.1792.08594-.34668-.12988-.50195l-5.81543-4.18359c-.21582-.15527-.38867-.14258-.51758.03662l-4.01562,4.22021c-.32129.36963-.69629.39893-1.12695.08887l-7.64648-5.50098c-.46777-.33594-.47852-.69775-.03516-1.0874l33.99609-30.7876c.35547-.34277.73047-.37305,1.12598-.08838l8.77832,6.31445c.39453.28369.48535.64893.27344,1.0957l-18.43262,41.98291-.10059.25439c-.23242.32324-.54688.34229-.94141.05859l-7.80859-5.61719c-.43066-.31006-.52246-.67529-.27344-1.09619ZM228.73242,50.3818l3.6084,2.5957c.14258.10303.2793.06592.40918-.11426l6.89355-13.67334c.06641-.16895.06445-.28027-.00684-.33154-.07227-.05176-.17773-.01855-.31641.09912l-10.60938,11c-.12988.18018-.12207.3208.02148.42432Z"/>
        <path class="cls-1" d="M240.73535,80.18356c.04395-.21484.1582-.38232.34277-.50488l37.41211-24.72607c.18457-.12207.38281-.16162.59863-.11719.21387.04346.38281.15723.50488.34229l6.98633,10.5708c2.34082,3.54199,3.22168,7.04102,2.64453,10.49805-.5791,3.45605-2.50977,6.27051-5.79297,8.44043l-16.93555,11.19238c-3.28418,2.1709-6.62891,2.84326-10.03516,2.021-3.40723-.82373-6.28125-3.00586-8.62207-6.54785l-6.98633-10.5708c-.12207-.18506-.16113-.38379-.11719-.59814ZM254.52734,84.38766l1.08008,1.5127c.54785.75098,1.31641,1.17041,2.30371,1.26074.98633.08984,2.02734-.20068,3.12207-.87109l15.71777-10.3877c1.10645-.73145,1.82129-1.57568,2.14453-2.53076.32227-.95605.20312-1.85791-.35742-2.70605l-.9873-1.49414c-.12207-.18506-.27539-.21582-.45996-.09375l-22.46973,14.8501c-.18457.12256-.21582.2749-.09375.45996Z"/>
        <path class="cls-1" d="M261.00684,118.01754c.1123-.18896.27539-.30908.49023-.36328l15.8252-3.98633.37012-.16113,24.75-15.81201c.07422-.06494.17676-.11279.30469-.14551.38672-.09717.63281.06836.74121.49756l2.43066,9.64941c.10742.42822-.05762.76709-.49707,1.01465l-13.3418,6.78125c-.16113.08545-.23047.17139-.20898.25781.02148.08545.12305.12842.30566.12842l14.96289-.34863c.50391.00977.81055.22852.91797.65771l2.43066,9.64941c.06543.25732.03516.4585-.08691.60352-.12402.14453-.34668.2124-.66797.20264l-29.31934-2.3291-.40137.03271-15.8252,3.98633c-.21484.0542-.41602.0249-.60352-.0874-.18848-.11279-.30957-.27588-.36328-.48975l-2.30078-9.13477c-.05469-.21533-.02539-.41602.08691-.60352Z"/>
      </g>
      <g>
        <path class="cls-1" d="M91.86133,231.37887c-.01074.21875-.09766.40234-.26074.55078l-5.7832,5.27637c-.16309.14941-.35449.21875-.57227.20801-.21973-.00977-.40332-.09668-.55176-.25977l-5.54395-6.07715c-.14941-.16406-.30566-.16992-.46875-.02148l-26.51367,24.18848c-.16406.14941-.35449.21875-.57324.20898-.21973-.01074-.40234-.09766-.55176-.26074l-6.34863-6.95898c-.14941-.16406-.21875-.35449-.20801-.57324.00879-.21875.0957-.40137.25977-.55078l26.51367-24.18848c.16309-.14941.16992-.30566.02148-.46875l-5.32031-5.83203c-.15039-.16406-.21973-.35449-.20898-.57324.00977-.21875.09668-.40234.25977-.55176l5.7832-5.27539c.16309-.14941.35352-.21875.57324-.20898.21777.00977.40234.09668.55176.26074l18.7334,20.53418c.14844.16309.21777.35352.20898.57324Z"/>
        <path class="cls-1" d="M79.24121,274.70211c-1.01758-3.40137-.50293-6.93652,1.54199-10.60742l9.74902-17.50195c2.02246-3.63184,4.75293-5.9209,8.19141-6.86621,3.43652-.94531,7.0293-.375,10.77734,1.71289,3.70898,2.06641,6.08594,4.82129,7.12988,8.2627s.55469,6.97852-1.46777,10.61035l-9.74902,17.50195c-2.04492,3.6709-4.7998,5.95801-8.26562,6.8623-3.46582.90527-7.05273.32422-10.76172-1.74219-3.74805-2.08691-6.12988-4.83105-7.14551-8.23242ZM93.4707,274.92086c.81641-.33008,1.51562-1.0166,2.09668-2.05957l10.20117-18.31348c.58105-1.04297.7959-1.99805.64746-2.86621-.15039-.86816-.64941-1.53906-1.49902-2.0127-.85059-.47363-1.67383-.53906-2.4707-.19922-.79785.3418-1.48633,1.03223-2.06738,2.07617l-10.20117,18.31348c-.58105,1.04297-.80664,1.99316-.67676,2.85059s.62012,1.52148,1.46973,1.99512,1.68262.5459,2.5.21582Z"/>
        <path class="cls-1" d="M130.30078,298.48727l-3.85156-45.58105-.03613-.27148c.04492-.39551.30859-.56543.79297-.50977l9.68848,1.11133c.52734.06055.78418.33496.77344.82324l.47852,22.02344c.02832.13672.08594.20996.1748.2207.08789.00977.16113-.04883.2207-.1748l5.45312-21.34375c.09863-.47754.41309-.68652.93945-.62598l7.71191.88477c.52637.05957.78418.33496.77344.82324l.80762,22.06055c.02832.13672.08594.21094.1748.2207.08789.00977.13965-.05078.1543-.18262l5.19043-21.37305c.09863-.47852.38965-.69043.87402-.63477l9.49023,1.08887c.57031.06543.78027.37988.62695.94043l-13.61328,43.57715c-.09961.47949-.41309.6875-.94043.62695l-8.43555-.96777c-.52734-.06055-.78613-.33496-.77344-.82324l-.70996-22.91797c-.0293-.1377-.09863-.21191-.20801-.22461-.11035-.0127-.17188.04688-.1875.17871l-5.48535,22.20801c-.09961.47852-.3916.68945-.87402.63379l-8.43652-.96777c-.4834-.05566-.74121-.3291-.77344-.82324Z"/>
        <path class="cls-1" d="M187.79785,299.23727c-.18457-.11816-.29883-.28613-.34473-.50293l-9.33398-43.86328c-.0459-.21582-.00977-.41504.11035-.59961.11816-.18359.28613-.29883.50293-.34473l9.21387-1.96094c.21582-.0459.41602-.00879.59961.11035.18359.12012.29883.28711.34473.50293l9.33301,43.86328c.04688.2168.00977.41699-.10938.59961-.12012.18457-.28711.29883-.50293.34473l-9.21387,1.95996c-.2168.04688-.41699.01074-.59961-.10938Z"/>
        <path class="cls-1" d="M214.86035,241.05465c.06348-.20898.19336-.36621.38867-.46973l8.19824-4.36426c.19531-.10352.39746-.12305.60742-.05957.20898.06445.36621.19336.46973.38867l21.07031,39.58691c.10352.19629.12305.39844.05957.60645-.06445.21094-.19336.36621-.38867.4707l-9.31152,4.95508c-.42969.22949-.80566.17969-1.13086-.14844l-16.64453-17.29395c-.10156-.0957-.20605-.12695-.31445-.0957-.10742.0332-.12012.12695-.03711.2832l10.90137,20.19922c.10449.19629.12402.39844.06055.60645-.06445.21094-.19434.36621-.38867.4707l-8.19922,4.36328c-.19531.10449-.39746.125-.60645.05957-.20996-.0625-.36523-.19238-.46973-.38867l-21.07031-39.58691c-.10352-.19434-.12402-.39648-.05957-.60645.06348-.20898.19238-.36621.38867-.46973l9.19434-4.89355c.42871-.22852.80664-.17871,1.13086.14844l16.76562,17.37988c.10059.09668.2002.11914.29785.06641.09766-.05176.10547-.15527.02246-.31152l-10.875-20.29004c-.10352-.19434-.12402-.39648-.05957-.60645Z"/>
        <path class="cls-1" d="M264.63867,257.56637c-3.44727.25781-6.6377-.95898-9.57129-3.64941l-15.78906-14.48535c-2.93359-2.69141-4.41016-5.75684-4.43457-9.19922-.02246-3.44238,1.38574-6.71094,4.22656-9.80762,2.83984-3.0957,5.99902-4.77344,9.47852-5.0332,3.47852-.25879,6.68457.95605,9.61816,3.64746l1.80859,1.65918c.16309.15039.24902.33398.25879.55273.00879.21973-.06152.40918-.20996.57227l-6.36914,6.94141c-.14941.16309-.33301.25-.55176.25879-.21875.00977-.40918-.06055-.57227-.21094l-1.90723-1.74902c-.78125-.7168-1.59668-1.10449-2.44434-1.16211s-1.57031.24023-2.16797.8916c-.56836.61914-.78711,1.34863-.65723,2.18848.12988.83887.58594,1.61816,1.36816,2.33496l15.83887,14.53027c.78125.71777,1.59668,1.10547,2.44434,1.16309s1.55469-.22363,2.12305-.84277c.59766-.65137.83203-1.39746.70215-2.2373-.12988-.83887-.58594-1.61816-1.36816-2.33496l-3.12891-2.87109c-.16211-.14844-.31934-.1416-.46875.02051l-1.16602,1.27148c-.14941.16309-.33301.24902-.55176.25781-.21875.01074-.40918-.05957-.57227-.20996l-5.18164-4.75391c-.16309-.14844-.25-.33203-.25879-.55176-.00977-.21875.05957-.40918.20996-.57227l8.29688-9.04395c.14941-.16211.33301-.24805.55176-.25879.21973-.00879.41016.06152.57227.20996l9.09277,8.3418c2.93262,2.69141,4.41211,5.77344,4.43652,9.24609.02344,3.47461-1.38379,6.75879-4.22461,9.85449-2.84082,3.09668-5.9834,4.77344-9.43164,5.03125Z"/>
      </g>
      <g>
        <path class="cls-1" d="M14.2168,165.43844c-.08789.08691-.19336.13086-.31738.13086h-7.51074c-.125,0-.18652.0625-.18652.18652v4.70801c0,.125.06152.18652.18652.18652h4.11035c.12402,0,.23047.04395.31738.13086.08691.08789.13086.19336.13086.31738v4.44629c0,.125-.04395.23047-.13086.31738-.08691.08789-.19336.13086-.31738.13086h-4.11035c-.125,0-.18652.0625-.18652.1875v4.74512c0,.125.06152.18652.18652.18652h7.51074c.12402,0,.22949.04395.31738.13086.08691.08789.13086.19336.13086.31738v4.40918c0,.125-.04395.23047-.13086.31738-.08789.08789-.19336.13086-.31738.13086H.44824c-.125,0-.23047-.04297-.31738-.13086-.08789-.08691-.13086-.19238-.13086-.31738v-25.25781c0-.12402.04297-.23047.13086-.31738.08691-.08691.19238-.13086.31738-.13086h13.45117c.12402,0,.22949.04395.31738.13086.08691.08691.13086.19336.13086.31738v4.40918c0,.125-.04395.23047-.13086.31738Z"/>
        <path class="cls-1" d="M24.99609,185.83883c-1.14648-.58496-2.03613-1.40723-2.67188-2.46582-.63477-1.05859-.95215-2.26074-.95215-3.60547v-1.1582c0-.125.04297-.23047.12988-.31836.08789-.08691.19336-.13086.31836-.13086h5.23047c.12402,0,.23047.04395.31738.13086.08691.08789.13086.19336.13086.31836v.85938c0,.59766.14355,1.07129.42969,1.41895.28613.34961.6543.52344,1.10254.52344s.81543-.16797,1.10254-.50391c.28613-.33691.42969-.7666.42969-1.28906,0-.57324-.22461-1.08984-.67285-1.55078s-1.34473-1.17676-2.69043-2.14844c-1.24609-.89648-2.2666-1.7002-3.06348-2.41016-.79785-.70996-1.48242-1.59375-2.05566-2.65234s-.85938-2.28516-.85938-3.68066c0-1.41992.31836-2.67773.95312-3.77344.63574-1.0957,1.53223-1.94336,2.69043-2.54102s2.48438-.89648,3.97949-.89648c1.51855,0,2.8584.30469,4.0166.91504s2.05469,1.46973,2.68945,2.57812c.63574,1.1084.95312,2.38574.95312,3.83008v.89648c0,.125-.04395.23047-.13086.31738-.08789.08789-.19336.13086-.31738.13086h-5.19336c-.125,0-.23047-.04297-.31836-.13086-.08691-.08691-.12988-.19238-.12988-.31738v-1.0459c0-.54785-.15039-.99609-.44922-1.3457-.29883-.34863-.67188-.52246-1.12012-.52246-.44922,0-.81055.17383-1.08398.52246-.27441.34961-.41113.80957-.41113,1.38281,0,.62305.21191,1.18359.63574,1.68164.42285.49805,1.28223,1.2207,2.57812,2.16699,1.56934,1.1709,2.75195,2.11719,3.54883,2.83984s1.41992,1.52539,1.86816,2.40918c.44824.88477.67285,1.9248.67285,3.12012,0,2.24219-.7041,4.02344-2.11133,5.34277-1.40723,1.32129-3.25684,1.98047-5.54785,1.98047-1.51953,0-2.85254-.29297-3.99805-.87793Z"/>
        <path class="cls-1" d="M59.68848,160.39449c.08691.08691.13086.19336.13086.31738v4.40918c0,.125-.04395.23047-.13086.31738-.08789.08691-.19336.13086-.31836.13086h-4.63281c-.125,0-.18652.0625-.18652.18652v20.21387c0,.125-.04395.23047-.13086.31738-.08789.08789-.19336.13086-.31738.13086h-5.30566c-.125,0-.23047-.04297-.31738-.13086-.08789-.08691-.13086-.19238-.13086-.31738v-20.21387c0-.12402-.0625-.18652-.1875-.18652h-4.44629c-.125,0-.23047-.04395-.31738-.13086-.08789-.08691-.13086-.19238-.13086-.31738v-4.40918c0-.12402.04297-.23047.13086-.31738.08691-.08691.19238-.13086.31738-.13086h15.65527c.125,0,.23047.04395.31836.13086Z"/>
        <path class="cls-1" d="M66.37598,185.72653c-.61035-.61035-.91504-1.3877-.91504-2.33496,0-.97168.30469-1.75586.91504-2.35352.61035-.59863,1.38867-.89746,2.33496-.89746.94727,0,1.71875.29883,2.31738.89746.59766.59766.89648,1.38184.89648,2.35352,0,.94727-.30566,1.72461-.91602,2.33496-.61035.61133-1.37598.91602-2.29785.91602-.94629,0-1.72461-.30469-2.33496-.91602Z"/>
      </g>
      <g>
        <path class="cls-1" d="M248.81836,181.03805c.02441.0498.07422.07422.14941.07422h7.47266c.12402,0,.22949.04395.31738.13086.08691.08789.13086.19336.13086.31738v4.40918c0,.125-.04395.23047-.13086.31738-.08789.08789-.19336.13086-.31738.13086h-14.64648c-.125,0-.23047-.04297-.31738-.13086-.08789-.08691-.13086-.19238-.13086-.31738v-4.55859c0-.17383.06152-.36035.18652-.56055-.07422.09961.57227-.65918,1.94336-2.2793.94629-1.12012,1.86816-2.23535,2.76465-3.34375s1.63086-2.08594,2.2041-2.93262c1.24512-1.91797,1.86816-3.5625,1.86816-4.93262,0-.69727-.13086-1.21973-.39258-1.56934-.26074-.34863-.60352-.52246-1.02734-.52246s-.76562.17383-1.02734.52246c-.26172.34961-.37988.79785-.35449,1.3457v1.60645c0,.125-.04395.23047-.13086.31738-.08789.08789-.19336.13086-.31738.13086h-5.38086c-.125,0-.23047-.04297-.31738-.13086-.08789-.08691-.13086-.19238-.13086-.31738v-1.86816c.12402-2.06738.9209-3.73633,2.3916-5.00684,1.46875-1.27051,3.3252-1.90527,5.56641-1.90527,1.44434,0,2.72754.31152,3.84863.93359,1.12109.62305,1.99316,1.49512,2.61523,2.61523.62305,1.12109.93457,2.41699.93457,3.88574,0,1.32129-.20508,2.54785-.61621,3.68066-.41113,1.13379-1.07812,2.34863-1.99902,3.64355-.74707,1.07129-1.95605,2.54004-3.625,4.4082l-1.49414,1.75586c-.0498.05078-.0625.10059-.03711.15039Z"/>
        <path class="cls-1" d="M265.55664,184.69918c-1.39551-1.44434-2.09277-3.34961-2.09277-5.7168v-11.2832c0-2.36621.69727-4.27246,2.09277-5.7168,1.39453-1.44434,3.25-2.16699,5.56641-2.16699,2.31738,0,4.17188.72266,5.56738,2.16699,1.39453,1.44434,2.09277,3.35059,2.09277,5.7168v11.2832c0,2.36719-.69824,4.27246-2.09277,5.7168-1.39551,1.44531-3.25,2.16699-5.56738,2.16699-2.31641,0-4.17188-.72168-5.56641-2.16699ZM272.18848,180.92574c.26172-.39844.39258-.92188.39258-1.56934v-12.03125c0-.64746-.13086-1.1709-.39258-1.56934s-.61719-.59766-1.06543-.59766-.80273.19922-1.06445.59766-.39258.92188-.39258,1.56934v12.03125c0,.64746.13086,1.1709.39258,1.56934s.61621.59766,1.06445.59766.80371-.19922,1.06543-.59766Z"/>
        <path class="cls-1" d="M293.16797,181.03805c.02441.0498.07422.07422.14941.07422h7.47266c.12402,0,.22949.04395.31738.13086.08691.08789.13086.19336.13086.31738v4.40918c0,.125-.04395.23047-.13086.31738-.08789.08789-.19336.13086-.31738.13086h-14.64648c-.125,0-.23047-.04297-.31738-.13086-.08789-.08691-.13086-.19238-.13086-.31738v-4.55859c0-.17383.06152-.36035.18652-.56055-.07422.09961.57227-.65918,1.94336-2.2793.94629-1.12012,1.86816-2.23535,2.76465-3.34375s1.63086-2.08594,2.2041-2.93262c1.24512-1.91797,1.86816-3.5625,1.86816-4.93262,0-.69727-.13086-1.21973-.39258-1.56934-.26074-.34863-.60352-.52246-1.02734-.52246s-.76562.17383-1.02734.52246c-.26172.34961-.37988.79785-.35449,1.3457v1.60645c0,.125-.04395.23047-.13086.31738-.08789.08789-.19336.13086-.31738.13086h-5.38086c-.125,0-.23047-.04297-.31738-.13086-.08789-.08691-.13086-.19238-.13086-.31738v-1.86816c.12402-2.06738.9209-3.73633,2.3916-5.00684,1.46875-1.27051,3.3252-1.90527,5.56641-1.90527,1.44434,0,2.72754.31152,3.84863.93359,1.12109.62305,1.99316,1.49512,2.61523,2.61523.62305,1.12109.93457,2.41699.93457,3.88574,0,1.32129-.20508,2.54785-.61621,3.68066-.41113,1.13379-1.07812,2.34863-1.99902,3.64355-.74707,1.07129-1.95605,2.54004-3.625,4.4082l-1.49414,1.75586c-.0498.05078-.0625.10059-.03711.15039Z"/>
        <path class="cls-1" d="M325.43164,174.51754c.08691.08789.13086.19336.13086.31738v4.70801c0,.125-.04395.23047-.13086.31738-.08789.08789-.19336.13086-.31738.13086h-1.2334c-.125,0-.18652.0625-.18652.1875v5.79102c0,.125-.04395.23047-.13086.31738-.08789.08789-.19336.13086-.31738.13086h-5.30566c-.125,0-.23145-.04297-.31836-.13086-.08691-.08691-.13086-.19238-.13086-.31738v-5.79102c0-.125-.0625-.1875-.18652-.1875h-9.49023c-.125,0-.23047-.04297-.31738-.13086-.08789-.08691-.13086-.19238-.13086-.31738v-3.73633c0-.19922.02441-.37402.07422-.52344l4.7832-14.64648c.07422-.24805.23633-.37305.48535-.37305h5.67969c.14941,0,.26074.0498.33594.14941s.08691.22363.03711.37305l-4.14746,13.37695c-.02441.14941.02441.22363.14941.22363h2.54102c.12402,0,.18652-.06152.18652-.18652v-3.21387c0-.12402.04395-.22949.13086-.31738.08691-.08691.19336-.13086.31836-.13086h5.30566c.12402,0,.22949.04395.31738.13086.08691.08789.13086.19336.13086.31738v3.21387c0,.125.06152.18652.18652.18652h1.2334c.12402,0,.22949.04395.31738.13086Z"/>
      </g>
      <g id="q3JM3S">
        <path class="cls-1" d="M89.25514,150.01627c2.48429.86184,4.89329,2.11011,7.56724,2.33942,7.47448.64099,13.79676-3.12365,21.12876.8199.69611.37441,1.30548.91811,1.98632,1.31442.2224-2.10061,1.20846-4.30124,2.38579-6.0335,3.67456-5.40659,10.6451-7.4905,13.63576-13.64023.28473-.58549,1.52673-4.61658,1.77391-4.61459,4.15918,5.20747,4.77745,13.34131,2.4001,19.44329-2.20322,5.65503-9.52788,12.50903-9.55532,18.37759-.02095,4.47979,2.31633,13.59617,4.24085,17.72336,9.01063,19.32352,36.5359,24.11417,50.86348,8.1695,9.0833-10.10849,9.1309-24.84332,1.89686-35.99787-7.34577-11.32683-23.75161-20.29497-26.45897-33.84655-.57676-2.88693-.48617-5.91862-1.24216-8.77324-3.54392-2.86625-6.87616-4.21933-9.47002-8.21676-13.60722-20.97029,11.75699-45.35028,31.60934-31.60934,14.36034,9.9396,13.2907,31.23915-2.1735,39.30617.78737,7.07387,4.4428,12.35084,9.6769,16.90544,4.53427,3.94562,9.08427,6.92042,13.20904,11.50983,19.83876,22.07349,15.62799,55.82136-7.92299,73.27174-24.91032,18.45759-66.68119,10.21834-73.94836-22.51207-1.66606-7.50371-1.235-15.22643-.59101-22.83194-4.28476-4.27795-10.71197-3.70256-16.14157-5.39825-7.36111-2.29892-13.17658-8.10147-14.87046-15.70629ZM168.47739,83.58876c-2.65397.30361-5.76841,1.9907-7.5198,3.98732-8.48327,9.67105,5.05174,23.57904,15.55376,15.12758,8.74419-7.03685,2.63887-20.33586-8.03396-19.1149Z"/>
      </g>
    </g>
  </g>
</svg>